<svg width="24" height="24" viewBox="0 0 24 24" fill="none" xmlns="http://www.w3.org/2000/svg">
<path d="M12 0C8.82928 0.0382538 5.79921 1.31482 3.55702 3.55702C1.31482 5.79921 0.0382538 8.82928 0 12C0.0382538 15.1707 1.31482 18.2008 3.55702 20.443C5.79921 22.6852 8.82928 23.9617 12 24C15.1707 23.9617 18.2008 22.6852 20.443 20.443C22.6852 18.2008 23.9617 15.1707 24 12C23.9617 8.82928 22.6852 5.79921 20.443 3.55702C18.2008 1.31482 15.1707 0.0382538 12 0ZM18.8571 12.8571H12.8571V18.8571H11.1429V12.8571H5.14286V11.1429H11.1429V5.14286H12.8571V11.1429H18.8571V12.8571Z" fill="#6528BD"/>
</svg>
