<svg width="118" height="118" viewBox="0 0 118 118" fill="none" xmlns="http://www.w3.org/2000/svg">
<circle cx="59" cy="59" r="59" fill="#00FFCB"/>
<path fill-rule="evenodd" clip-rule="evenodd" d="M45.5 51.125C45.5 48.0184 48.0184 45.5 51.125 45.5C54.2316 45.5 56.75 48.0184 56.75 51.125C56.75 54.2316 54.2316 56.75 51.125 56.75C48.0184 56.75 45.5 54.2316 45.5 51.125ZM51.125 50C50.5037 50 50 50.5037 50 51.125C50 51.7463 50.5037 52.25 51.125 52.25C51.7463 52.25 52.25 51.7463 52.25 51.125C52.25 50.5037 51.7463 50 51.125 50Z" fill="#6528BD"/>
<path fill-rule="evenodd" clip-rule="evenodd" d="M36.5 43.25C36.5 39.5221 39.5221 36.5 43.25 36.5H74.75C78.4779 36.5 81.5 39.5221 81.5 43.25V74.75C81.5 78.4779 78.4779 81.5 74.75 81.5H43.25C39.5221 81.5 36.5 78.4779 36.5 74.75V43.25ZM43.25 41C42.0074 41 41 42.0074 41 43.25V74.75C41 75.7149 41.6073 76.5379 42.4606 76.8576L66.4092 52.909C67.2879 52.0303 68.7125 52.0303 69.5912 52.909L77 60.3178V43.25C77 42.0074 75.9926 41 74.75 41H43.25ZM77 66.6818L68.0002 57.682L48.6822 77H74.75C75.9926 77 77 75.9926 77 74.75V66.6818Z" fill="#6528BD"/>
</svg>
