<svg width="181" height="181" viewBox="0 0 181 181" fill="none" xmlns="http://www.w3.org/2000/svg">
<path d="M126.495 3H54.5045C26.0593 3 3 24.2412 3 50.4435V130.556C3 156.759 26.0593 178 54.5045 178H126.495C154.941 178 178 156.759 178 130.556V50.4435C178 24.2412 154.941 3 126.495 3Z" stroke="#00FFCB" stroke-width="5" stroke-miterlimit="10"/>
<path d="M57.3534 111.583C57.3534 127.347 57.3534 143.111 57.3534 158.875C57.3534 161.309 56.5159 162.123 53.8963 162.063C43.0126 161.813 33.9951 157.85 26.9241 150.262C21.0463 143.949 18.3196 136.566 18.3311 128.241C18.3732 97.6363 18.3464 67.0312 18.3464 36.4262C18.3464 36.095 18.3464 35.7674 18.3502 35.4363C18.3885 33.682 19.3904 32.7449 21.2834 32.7379C28.9012 32.7026 35.8345 34.767 42.0144 38.811C50.4277 44.3205 55.3916 51.8555 57.0207 61.2435C57.2808 62.7441 57.3572 64.2553 57.3572 65.7736C57.3458 81.0445 57.3496 96.3118 57.3496 111.583H57.3534Z" fill="#6528BD"/>
<path d="M106.978 110.67C106.978 116.934 107.058 123.2 106.959 129.464C106.817 138.351 103.23 145.943 96.4459 152.248C90.2545 158.005 82.7131 161.161 74.0016 161.989C72.8658 162.098 71.7109 162.087 70.5674 162.052C69.1181 162.01 68.1085 161.062 67.9861 159.727C67.967 159.53 67.9708 159.333 67.9708 159.135C67.9708 146.309 67.9249 133.483 67.9899 120.661C68.0358 111.244 71.8791 103.269 79.2216 96.7556C85.1186 91.5209 92.2048 88.5724 100.343 87.7199C101.559 87.5931 102.767 87.5473 103.983 87.5508C105.938 87.5544 106.974 88.4984 106.974 90.2985C106.982 97.0903 106.974 103.882 106.978 110.674V110.67Z" fill="#6528BD"/>
<path d="M156.966 63.8474C156.966 73.0804 156.966 82.3098 156.966 91.5428C156.966 92.6254 156.375 93.1679 155.192 93.1703C148.461 93.1703 141.735 93.1244 135.004 93.1984C132.866 93.2231 130.709 93.1844 128.587 93.5402C124.946 94.1531 121.726 95.5657 118.977 97.866C118.732 98.0703 118.514 98.4895 118.108 98.2993C117.737 98.1267 117.879 97.7075 117.879 97.394C117.875 86.5476 117.699 75.6942 117.94 64.8514C118.112 57.0557 121.198 50.1371 126.801 44.2225C133.118 37.5506 141.138 33.9046 150.607 32.8548C151.876 32.7139 153.184 32.7386 154.465 32.8055C155.59 32.8654 156.385 33.4467 156.729 34.4929C156.928 35.1023 156.966 35.7223 156.966 36.3493C156.966 45.5153 156.966 54.6814 156.966 63.8474Z" fill="#00FFCB"/>
<path d="M148.618 124.43C143.322 124.43 138.025 124.433 132.728 124.43C124.935 124.423 118.996 119.741 117.745 112.639C116.464 105.347 122.721 97.9393 130.663 97.2629C132.346 97.1185 134.017 97.0973 135.696 97.0973C145.574 97.0833 155.448 97.0832 165.326 97.0797C167.219 97.0797 167.521 97.3545 167.521 99.0736C167.521 106.852 167.521 114.633 167.521 122.411C167.521 124.169 167.242 124.437 165.364 124.437C159.781 124.437 154.198 124.437 148.618 124.437V124.43ZM129.684 110.959C129.486 114.376 132.442 117.307 136.549 117.3C140.327 117.293 143.475 114.207 143.524 111.107C143.574 108.011 140.71 104.502 136.511 104.467C132.675 104.435 129.688 107.338 129.684 110.956V110.959Z" fill="#00FFCB"/>
<path d="M117.875 141.659C117.875 135.858 117.875 130.056 117.883 124.257C117.883 123.916 117.692 123.433 118.105 123.264C118.533 123.088 118.755 123.57 119.03 123.796C122.747 126.85 127.126 128.326 132.075 128.344C139.876 128.375 147.677 128.354 155.475 128.361C156.974 128.361 156.944 128.453 156.882 129.855C156.764 132.603 156.355 135.301 155.502 137.932C153.376 144.516 149.498 150.036 143.716 154.429C138.473 158.413 132.488 160.795 125.799 161.721C124.212 161.939 122.61 162.087 120.992 162.045C118.954 161.996 117.875 161.045 117.872 159.164C117.86 153.33 117.868 147.497 117.872 141.663L117.875 141.659Z" fill="#00FFCB"/>
</svg>
