<svg width="458" height="498" viewBox="0 0 458 498" fill="none" xmlns="http://www.w3.org/2000/svg">
<path d="M323.26 0.950195H135.01C60.6284 0.950195 0.330078 61.2484 0.330078 135.63V363.05C0.330078 437.432 60.6284 497.73 135.01 497.73H323.26C397.642 497.73 457.94 437.432 457.94 363.05V135.63C457.94 61.2484 397.642 0.950195 323.26 0.950195Z" fill="#6528BD"/>
<path d="M142.46 309.19C142.46 353.94 142.46 398.69 142.46 443.44C142.46 450.35 140.27 452.66 133.42 452.49C104.96 451.78 81.38 440.53 62.89 418.99C47.52 401.07 40.39 380.11 40.42 356.48C40.53 269.6 40.4599 182.72 40.4599 95.8404C40.4599 94.9004 40.4599 93.9704 40.4699 93.0304C40.5699 88.0504 43.19 85.3904 48.14 85.3704C68.06 85.2704 86.1899 91.1305 102.35 102.611C124.35 118.251 137.33 139.64 141.59 166.29C142.27 170.55 142.47 174.84 142.47 179.15C142.44 222.5 142.45 265.84 142.45 309.19H142.46Z" fill="#00FFCB"/>
<path d="M272.22 306.611C272.22 324.391 272.43 342.18 272.17 359.96C271.8 385.19 262.42 406.74 244.68 424.64C228.49 440.98 208.77 449.941 185.99 452.291C183.02 452.601 180 452.571 177.01 452.471C173.22 452.351 170.58 449.661 170.26 445.871C170.21 445.311 170.22 444.75 170.22 444.19C170.22 407.78 170.1 371.371 170.27 334.971C170.39 308.241 180.44 285.601 199.64 267.111C215.06 252.251 233.59 243.88 254.87 241.46C258.05 241.1 261.21 240.971 264.39 240.981C269.5 240.991 272.21 243.671 272.21 248.781C272.23 268.061 272.21 287.341 272.22 306.621V306.611Z" fill="#00FFCB"/>
<path d="M402.95 173.68C402.95 199.89 402.95 226.09 402.95 252.3C402.95 255.374 401.403 256.913 398.31 256.92C380.71 256.92 363.12 256.79 345.52 257C339.93 257.07 334.29 256.96 328.74 257.97C319.22 259.71 310.8 263.72 303.61 270.25C302.97 270.83 302.4 272.02 301.34 271.48C300.37 270.99 300.74 269.8 300.74 268.91C300.73 238.12 300.27 207.31 300.9 176.53C301.35 154.4 309.42 134.76 324.07 117.97C340.59 99.0302 361.56 88.6802 386.32 85.7002C389.64 85.3002 393.06 85.3703 396.41 85.5603C399.35 85.7303 401.43 87.3802 402.33 90.3502C402.85 92.0802 402.95 93.8402 402.95 95.6202C402.95 121.64 402.95 147.66 402.95 173.68Z" fill="#00FFCB"/>
<path d="M381.11 345.66C367.26 345.66 353.41 345.67 339.56 345.66C319.18 345.64 303.65 332.35 300.38 312.19C297.03 291.49 313.39 270.461 334.16 268.541C338.56 268.131 342.93 268.071 347.32 268.071C373.15 268.031 398.97 268.031 424.8 268.021C429.75 268.021 430.54 268.8 430.54 273.68C430.54 295.76 430.54 317.85 430.54 339.93C430.54 344.92 429.81 345.68 424.9 345.68C410.3 345.68 395.7 345.68 381.11 345.68V345.66ZM331.6 307.42C331.08 317.12 338.81 325.44 349.55 325.42C359.43 325.4 367.66 316.641 367.79 307.841C367.92 299.051 360.43 289.09 349.45 288.99C339.42 288.9 331.61 297.14 331.6 307.41V307.42Z" fill="#00FFCB"/>
<path d="M300.73 394.57C300.73 378.1 300.73 361.63 300.75 345.17C300.75 344.2 300.25 342.83 301.33 342.35C302.45 341.85 303.03 343.22 303.75 343.86C313.47 352.53 324.92 356.72 337.86 356.77C358.26 356.86 378.66 356.8 399.05 356.82C402.97 356.82 402.89 357.08 402.73 361.06C402.42 368.86 401.35 376.52 399.12 383.99C393.56 402.68 383.42 418.35 368.3 430.82C354.59 442.13 338.94 448.89 321.45 451.52C317.3 452.14 313.11 452.56 308.88 452.44C303.55 452.3 300.73 449.6 300.72 444.26C300.69 427.7 300.71 411.14 300.72 394.58L300.73 394.57Z" fill="#00FFCB"/>
</svg>
