<svg width="37" height="37" viewBox="0 0 37 37" fill="none" xmlns="http://www.w3.org/2000/svg">
<path d="M12.9332 12.2807C12.8585 10.7283 13.4017 9.20953 14.444 8.05642C15.4862 6.90331 16.9428 6.20968 18.4952 6.12719C20.0475 6.20968 21.5041 6.90331 22.5464 8.05642C23.5886 9.20953 24.1318 10.7283 24.0571 12.2807C24.1292 13.8311 23.5848 15.347 22.5427 16.4975C21.5006 17.6479 20.0455 18.3394 18.4952 18.421C16.9448 18.3394 15.4897 17.6479 14.4476 16.4975C13.4055 15.347 12.8611 13.8311 12.9332 12.2807ZM37 18.5C37.0056 22.1726 35.9082 25.7622 33.8499 28.8041C33.7961 28.8971 33.7343 28.9852 33.6654 29.0677C31.9649 31.5157 29.6969 33.5158 27.0551 34.8972C24.4134 36.2785 21.4764 37 18.4952 37C15.5139 37 12.5769 36.2785 9.93519 34.8972C7.29344 33.5158 5.02542 31.5157 3.32489 29.0677C3.25599 28.9852 3.19425 28.8971 3.14037 28.8041C1.52911 26.4047 0.502689 23.6613 0.14343 20.7937C-0.215829 17.9261 0.10207 15.0143 1.07163 12.2918C2.04119 9.56922 3.63543 7.11169 5.72649 5.11629C7.81756 3.12089 10.3472 1.64315 13.1127 0.801574C15.8781 -0.04 18.8023 -0.221982 21.6508 0.270223C24.4993 0.762428 27.1928 1.91512 29.5152 3.63586C31.8377 5.35659 33.7245 7.59749 35.0243 10.1788C36.3241 12.7601 37.0007 15.6101 37 18.5ZM1.96734 18.5C1.96239 21.3074 2.67465 24.0695 4.03661 26.5246C6.89669 22.7692 12.3796 20.4238 18.4952 20.4238C24.6107 20.4238 30.0936 22.7692 32.9537 26.5246C34.1785 24.3185 34.8818 21.8613 35.0096 19.3414C35.1375 16.8215 34.6866 14.3058 33.6914 11.987C32.6963 9.66833 31.1833 7.60819 29.2685 5.96452C27.3536 4.32086 25.0878 3.13731 22.6446 2.50461C20.2015 1.8719 17.6458 1.80682 15.1736 2.31437C12.7014 2.82192 10.3782 3.88861 8.38221 5.4327C6.38617 6.97678 4.77025 8.95725 3.65832 11.2223C2.54638 13.4874 1.96794 15.9769 1.96734 18.5Z" fill="#6528BD"/>
</svg>
