<svg width="38" height="38" viewBox="0 0 38 38" fill="none" xmlns="http://www.w3.org/2000/svg">
<path d="M22.667 2.50008C22.667 1.48756 23.4878 0.666748 24.5003 0.666748H31.8337C33.2923 0.666748 34.6913 1.24621 35.7227 2.27766C36.7542 3.30911 37.3337 4.70806 37.3337 6.16675V31.8334C37.3337 33.2921 36.7542 34.6911 35.7227 35.7225C34.6913 36.754 33.2923 37.3334 31.8337 37.3334H24.5003C23.4878 37.3334 22.667 36.5126 22.667 35.5001C22.667 34.4876 23.4878 33.6667 24.5003 33.6667H31.8337C32.3199 33.6667 32.7862 33.4736 33.13 33.1298C33.4738 32.786 33.667 32.3196 33.667 31.8334V6.16675C33.667 5.68052 33.4738 5.2142 33.13 4.87039C32.7862 4.52657 32.3199 4.33341 31.8337 4.33341H24.5003C23.4878 4.33341 22.667 3.5126 22.667 2.50008Z" fill="#6528BD"/>
<path d="M14.0373 8.53705C14.7533 7.82109 15.9141 7.82109 16.63 8.53705L25.7967 17.7037C26.5126 18.4197 26.5126 19.5805 25.7967 20.2964L16.63 29.4631C15.9141 30.1791 14.7533 30.1791 14.0373 29.4631C13.3213 28.7471 13.3213 27.5863 14.0373 26.8704L20.0743 20.8334H2.50033C1.4878 20.8334 0.666992 20.0126 0.666992 19.0001C0.666992 17.9876 1.4878 17.1667 2.50033 17.1667H20.0743L14.0373 11.1298C13.3213 10.4138 13.3213 9.25301 14.0373 8.53705Z" fill="#6528BD"/>
</svg>
