<svg width="38" height="30" viewBox="0 0 38 30" fill="none" xmlns="http://www.w3.org/2000/svg">
<path d="M22.8 9.10591C22.8 8.71318 22.6141 8.34362 22.2979 8.10771L11.7651 0.251629C11.3824 -0.0333767 10.868 -0.079741 10.4364 0.130264C10.0062 0.341632 9.73479 0.773913 9.73479 1.24983V4.61945H1.26621C0.567286 4.61945 0 5.17719 0 5.86993V12.346C0 13.0374 0.567286 13.5965 1.26621 13.5965H9.73479V16.9634C9.73479 17.4393 10.0062 17.8716 10.4378 18.0829C10.6169 18.1702 10.8096 18.2138 11.0024 18.2138C11.2738 18.2138 11.5425 18.1279 11.7664 17.9602L22.2992 10.1014C22.6141 9.86411 22.8 9.49728 22.8 9.10591ZM36.7338 16.4056H28.2449V13.036C28.2449 12.5601 27.9721 12.1278 27.5405 11.9164C27.113 11.7064 26.5973 11.7528 26.2119 12.0405L15.7008 19.898C15.3846 20.1352 15.1986 20.5021 15.1986 20.8934C15.1986 21.2862 15.3846 21.6557 15.7008 21.8903L26.2119 29.7464C26.4358 29.9141 26.7059 30 26.9773 30C27.17 30 27.3627 29.9577 27.5419 29.8691C27.9721 29.6577 28.2449 29.2241 28.2449 28.7495V25.3799H36.7338C37.4327 25.3799 38 24.8222 38 24.1294V17.6561C38 16.9647 37.4327 16.4056 36.7338 16.4056Z" fill="#6528BD"/>
</svg>
