<svg width="42" height="42" viewBox="0 0 42 42" fill="none" xmlns="http://www.w3.org/2000/svg">
<path fill-rule="evenodd" clip-rule="evenodd" d="M14.875 3.5C10.0425 3.5 6.125 7.41751 6.125 12.25C6.125 17.0825 10.0425 21 14.875 21C19.7075 21 23.625 17.0825 23.625 12.25C23.625 7.41751 19.7075 3.5 14.875 3.5ZM9.625 12.25C9.625 9.3505 11.9755 7 14.875 7C17.7745 7 20.125 9.3505 20.125 12.25C20.125 15.1495 17.7745 17.5 14.875 17.5C11.9755 17.5 9.625 15.1495 9.625 12.25Z" fill="#6528BD"/>
<path d="M8.75 24.5C6.42935 24.5 4.20376 25.4219 2.56282 27.0628C0.921873 28.7038 0 30.9294 0 33.25V36.75C0 37.7165 0.783502 38.5 1.75 38.5C2.7165 38.5 3.5 37.7165 3.5 36.75V33.25C3.5 31.8576 4.05312 30.5223 5.03769 29.5377C6.02226 28.5531 7.35761 28 8.75 28H21C22.3924 28 23.7277 28.5531 24.7123 29.5377C25.6969 30.5223 26.25 31.8576 26.25 33.25V36.75C26.25 37.7165 27.0335 38.5 28 38.5C28.9665 38.5 29.75 37.7165 29.75 36.75V33.25C29.75 30.9294 28.8281 28.7038 27.1872 27.0628C25.5462 25.4219 23.3206 24.5 21 24.5H8.75Z" fill="#6528BD"/>
<path d="M35 12.25C35.9665 12.25 36.75 13.0335 36.75 14V17.5H40.25C41.2165 17.5 42 18.2835 42 19.25C42 20.2165 41.2165 21 40.25 21H36.75V24.5C36.75 25.4665 35.9665 26.25 35 26.25C34.0335 26.25 33.25 25.4665 33.25 24.5V21H29.75C28.7835 21 28 20.2165 28 19.25C28 18.2835 28.7835 17.5 29.75 17.5H33.25V14C33.25 13.0335 34.0335 12.25 35 12.25Z" fill="#6528BD"/>
</svg>
